<svg id="svg" version="1.1" xmlns="http://www.w3.org/2000/svg" xmlns:xlink="http://www.w3.org/1999/xlink" width="400" height="155.8482406133281" viewBox="0, 0, 400,155.8482406133281"><g id="svgg"><path id="path0" d="M0.667 77.917 L 0.667 155.167 200.000 155.167 L 399.333 155.167 399.333 77.917 L 399.333 0.667 200.000 0.667 L 0.667 0.667 0.667 77.917 M60.035 57.405 C 63.912 59.644,67.177 61.559,67.292 61.661 C 67.524 61.868,67.603 78.259,67.372 78.596 C 67.193 78.859,53.039 87.000,52.761 87.000 C 52.469 87.000,38.864 79.197,38.292 78.701 C 37.856 78.324,37.840 62.007,38.275 61.646 C 38.832 61.184,52.426 53.366,52.702 53.350 C 52.859 53.341,56.159 55.165,60.035 57.405 M46.253 58.163 C 42.771 60.173,39.899 61.885,39.872 61.967 C 39.845 62.049,40.682 62.614,41.734 63.223 L 43.645 64.329 48.100 61.748 C 50.551 60.328,52.645 59.167,52.754 59.167 C 52.864 59.167,54.959 60.327,57.410 61.745 L 61.867 64.322 63.772 63.219 C 64.820 62.613,65.655 62.047,65.626 61.962 C 65.566 61.781,52.995 54.500,52.750 54.504 C 52.658 54.506,49.734 56.152,46.253 58.163 M218.090 66.250 C 220.172 70.833,222.013 74.902,222.181 75.292 L 222.488 76.000 221.202 76.000 L 219.915 76.000 218.916 73.755 L 217.917 71.509 214.150 71.505 L 210.383 71.500 209.871 72.625 C 209.590 73.244,209.134 74.256,208.857 74.875 L 208.354 76.000 207.094 76.000 C 206.401 76.000,205.833 75.970,205.833 75.933 C 205.833 75.897,207.268 72.690,209.022 68.808 C 210.776 64.926,212.528 61.038,212.917 60.167 C 213.992 57.755,214.048 57.648,214.182 57.787 C 214.250 57.858,216.009 61.667,218.090 66.250 M361.460 66.958 L 361.503 76.000 360.251 76.000 L 359.000 76.000 359.000 74.893 L 359.000 73.786 358.327 74.551 C 355.571 77.682,350.642 76.321,349.411 72.089 C 347.698 66.197,354.256 61.581,358.259 65.860 L 359.000 66.652 359.000 62.236 L 359.000 57.819 360.208 57.868 L 361.417 57.917 361.460 66.958 M126.167 62.138 L 126.167 66.276 126.883 65.590 C 128.731 63.819,131.028 63.686,132.601 65.259 C 133.736 66.394,133.848 67.009,133.795 71.845 L 133.750 75.917 132.542 75.966 L 131.333 76.015 131.332 72.216 C 131.331 67.219,131.028 66.333,129.315 66.333 C 126.848 66.333,126.169 67.692,126.168 72.632 L 126.167 76.015 124.958 75.966 L 123.750 75.917 123.707 66.958 L 123.664 58.000 124.915 58.000 L 126.167 58.000 126.167 62.138 M88.000 61.583 L 88.000 65.000 92.167 65.000 L 96.333 65.000 96.333 61.583 L 96.333 58.167 97.583 58.167 L 98.833 58.167 98.833 67.083 L 98.833 76.000 97.583 76.000 L 96.333 76.000 96.333 71.750 L 96.333 67.500 92.167 67.500 L 88.000 67.500 88.000 71.750 L 88.000 76.000 86.750 76.000 L 85.500 76.000 85.500 67.083 L 85.500 58.167 86.750 58.167 L 88.000 58.167 88.000 61.583 M333.833 65.833 L 333.833 73.500 336.667 73.500 L 339.500 73.500 339.500 74.750 L 339.500 76.000 335.417 76.000 L 331.333 76.000 331.333 67.083 L 331.333 58.167 332.583 58.167 L 333.833 58.167 333.833 65.833 M104.607 59.106 C 106.633 60.067,105.383 63.229,103.272 62.483 C 101.628 61.902,101.491 59.756,103.054 59.077 C 103.744 58.776,103.920 58.780,104.607 59.106 M48.042 62.956 L 44.167 65.218 44.167 69.876 L 44.167 74.533 44.708 74.218 C 45.006 74.045,46.806 73.008,48.708 71.914 L 52.167 69.925 52.167 65.296 C 52.167 62.750,52.110 60.673,52.042 60.680 C 51.973 60.688,50.173 61.712,48.042 62.956 M53.334 65.278 L 53.334 69.917 56.368 71.667 C 58.037 72.629,59.837 73.665,60.368 73.968 L 61.333 74.519 61.333 69.857 L 61.333 65.195 57.471 62.973 C 55.346 61.750,53.546 60.725,53.471 60.694 C 53.395 60.664,53.333 62.726,53.334 65.278 M149.333 62.833 L 149.333 64.500 150.591 64.500 L 151.849 64.500 151.799 65.625 L 151.750 66.750 150.542 66.799 L 149.333 66.848 149.333 71.424 L 149.333 76.000 148.167 76.000 L 147.000 76.000 147.000 71.375 L 147.001 66.750 146.042 66.750 L 145.083 66.750 145.034 65.625 L 144.985 64.500 145.992 64.500 L 147.000 64.500 147.000 62.833 L 147.000 61.167 148.167 61.167 L 149.333 61.167 149.333 62.833 M195.000 62.833 L 195.000 64.500 196.174 64.500 L 197.349 64.500 197.299 65.625 L 197.250 66.750 196.125 66.799 L 195.000 66.849 195.000 71.424 L 195.000 76.000 193.750 76.000 L 192.500 76.000 192.500 71.417 L 192.500 66.833 191.583 66.833 L 190.667 66.833 190.667 65.667 L 190.667 64.500 191.583 64.500 L 192.500 64.500 192.500 62.833 L 192.500 61.167 193.750 61.167 L 195.000 61.167 195.000 62.833 M288.667 62.833 L 288.667 64.500 289.841 64.500 L 291.015 64.500 290.966 65.625 L 290.917 66.750 289.792 66.799 L 288.667 66.849 288.667 71.424 L 288.667 76.000 287.417 76.000 L 286.167 76.000 286.167 71.425 L 286.167 66.850 285.208 66.800 L 284.250 66.750 284.201 65.625 L 284.151 64.500 285.159 64.500 L 286.167 64.500 286.167 62.833 L 286.167 61.167 287.417 61.167 L 288.667 61.167 288.667 62.833 M345.000 62.833 L 345.000 64.500 346.167 64.500 L 347.333 64.500 347.333 65.667 L 347.333 66.833 346.167 66.833 L 345.000 66.833 345.000 71.417 L 345.000 76.000 343.750 76.000 L 342.500 76.000 342.500 71.425 L 342.500 66.850 341.542 66.800 L 340.583 66.750 340.534 65.625 L 340.485 64.500 341.492 64.500 L 342.500 64.500 342.500 62.833 L 342.500 61.167 343.750 61.167 L 345.000 61.167 345.000 62.833 M39.167 70.534 L 39.167 78.097 40.625 78.935 C 41.427 79.396,44.313 81.062,47.038 82.636 C 49.762 84.211,52.031 85.500,52.079 85.500 C 52.127 85.500,52.164 84.469,52.162 83.208 L 52.157 80.917 47.662 78.338 L 43.167 75.759 43.167 70.491 L 43.167 65.224 41.308 64.153 C 40.285 63.565,39.385 63.058,39.308 63.028 C 39.230 62.997,39.167 66.375,39.167 70.534 M64.208 64.138 L 62.333 65.242 62.333 70.503 L 62.333 75.764 57.839 78.340 L 53.346 80.917 53.339 83.208 C 53.336 84.469,53.380 85.500,53.437 85.500 C 53.494 85.500,56.412 83.839,59.921 81.809 L 66.300 78.119 66.408 75.434 C 66.563 71.554,66.455 62.998,66.250 63.018 C 66.158 63.027,65.240 63.531,64.208 64.138 M212.737 66.222 L 211.393 69.250 214.053 69.296 C 215.517 69.321,216.742 69.314,216.776 69.280 C 216.822 69.233,214.240 63.371,214.107 63.222 C 214.093 63.206,213.477 64.556,212.737 66.222 M115.833 64.660 C 116.246 64.869,116.940 65.421,117.375 65.887 L 118.167 66.735 118.167 65.618 L 118.167 64.500 119.341 64.500 L 120.515 64.500 120.466 70.792 C 120.410 77.970,120.428 77.867,118.908 79.493 C 116.336 82.242,111.650 81.783,109.826 78.604 C 109.121 77.373,109.143 77.333,110.526 77.333 C 111.707 77.333,111.723 77.340,112.277 77.987 C 114.503 80.586,117.965 78.974,118.137 75.258 L 118.207 73.750 117.514 74.532 C 114.116 78.370,108.417 75.635,108.417 70.167 C 108.417 65.717,112.268 62.857,115.833 64.660 M141.665 64.596 C 142.169 64.830,142.827 65.210,143.127 65.439 L 143.674 65.856 142.879 66.577 L 142.083 67.297 141.417 66.919 C 140.021 66.126,138.500 66.323,138.500 67.296 C 138.500 67.948,138.951 68.317,140.849 69.220 C 143.937 70.689,144.706 72.830,142.875 74.857 C 141.082 76.842,137.716 76.676,136.185 74.526 L 135.820 74.013 136.654 73.590 C 137.678 73.071,137.677 73.071,138.433 73.583 C 139.897 74.577,142.225 73.522,141.512 72.189 C 141.410 71.998,140.490 71.437,139.431 70.920 C 137.178 69.821,136.420 69.108,136.242 67.923 C 135.839 65.237,138.947 63.331,141.665 64.596 M160.950 64.299 C 161.101 64.395,161.066 64.712,160.806 65.603 L 160.463 66.781 159.690 66.711 C 157.305 66.494,156.667 67.705,156.667 72.443 L 156.667 76.000 155.417 76.000 L 154.167 76.000 154.167 70.250 L 154.167 64.500 155.409 64.500 L 156.651 64.500 156.700 65.502 L 156.750 66.504 157.333 65.710 C 158.217 64.508,160.114 63.768,160.950 64.299 M171.274 64.720 C 173.336 65.765,174.449 67.367,174.739 69.708 L 174.857 70.667 169.917 70.667 L 164.978 70.667 165.091 71.042 C 166.000 74.058,169.439 74.987,171.851 72.868 L 172.431 72.359 173.319 73.051 L 174.207 73.743 173.370 74.512 C 169.214 78.333,162.917 75.766,162.917 70.250 C 162.917 65.739,167.414 62.764,171.274 64.720 M185.533 64.740 C 187.530 65.702,189.000 68.042,189.000 70.258 L 189.000 70.667 184.167 70.667 C 178.799 70.667,179.090 70.595,179.591 71.795 C 180.593 74.192,184.096 74.751,186.084 72.831 L 186.584 72.348 187.474 73.027 L 188.365 73.706 187.641 74.444 C 187.242 74.849,186.542 75.358,186.083 75.573 C 178.895 78.949,173.489 69.789,179.858 65.026 C 181.146 64.063,183.846 63.927,185.533 64.740 M231.833 64.548 L 232.917 64.917 232.965 66.299 L 233.014 67.682 232.488 67.410 C 228.817 65.512,225.171 67.545,226.006 71.024 C 226.639 73.662,229.643 74.573,232.205 72.905 C 233.037 72.363,233.000 72.316,233.000 73.896 L 233.000 75.292 232.180 75.645 C 228.929 77.044,225.634 75.922,224.152 72.912 C 221.709 67.950,226.502 62.731,231.833 64.548 M243.083 64.629 L 243.917 64.960 243.965 66.313 C 244.011 67.604,243.929 67.858,243.575 67.512 C 243.176 67.122,241.529 66.641,240.575 66.635 C 236.276 66.611,235.414 72.566,239.555 73.681 C 240.673 73.983,241.288 73.819,243.875 72.534 C 243.944 72.500,244.000 73.108,244.000 73.885 L 244.000 75.298 242.875 75.762 C 236.914 78.221,231.746 71.084,235.940 66.184 C 237.520 64.338,240.640 63.659,243.083 64.629 M254.253 64.728 C 258.371 66.607,259.160 71.725,255.800 74.760 C 252.117 78.088,245.983 75.513,245.705 70.523 C 245.457 66.073,250.181 62.871,254.253 64.728 M279.844 64.334 C 282.016 64.937,282.333 65.839,282.333 71.411 L 282.333 76.000 281.167 76.000 L 280.000 76.000 279.996 72.292 C 279.994 70.252,279.923 68.283,279.838 67.917 C 279.445 66.211,277.457 65.766,276.026 67.062 C 275.150 67.857,275.089 68.157,275.000 72.167 L 274.917 75.917 273.708 75.966 L 272.500 76.015 272.500 70.257 L 272.500 64.500 273.667 64.500 L 274.833 64.500 274.833 65.452 L 274.833 66.404 275.625 65.627 C 276.941 64.336,278.325 63.912,279.844 64.334 M300.378 64.646 C 300.816 64.859,301.509 65.369,301.920 65.780 L 302.667 66.526 302.667 65.513 L 302.667 64.500 303.917 64.500 L 305.167 64.500 305.167 70.250 L 305.167 76.000 303.917 76.000 L 302.667 76.000 302.667 74.965 L 302.667 73.929 301.875 74.707 C 298.505 78.018,293.305 75.702,292.886 70.703 C 292.518 66.311,296.757 62.884,300.378 64.646 M105.000 70.250 L 105.000 76.000 103.833 76.000 L 102.667 76.000 102.667 70.250 L 102.667 64.500 103.833 64.500 L 105.000 64.500 105.000 70.250 M262.501 68.042 C 262.502 72.994,262.784 73.675,264.878 73.793 C 267.202 73.924,267.556 73.209,267.638 68.208 L 267.699 64.500 268.849 64.500 L 270.000 64.500 270.000 68.557 L 270.000 72.613 269.490 73.634 C 267.675 77.267,262.133 77.144,260.473 73.435 C 260.117 72.639,260.088 72.320,260.031 68.542 L 259.970 64.500 261.235 64.500 L 262.500 64.500 262.501 68.042 M312.996 66.101 C 314.185 67.637,314.245 67.689,314.492 67.371 C 314.634 67.189,315.185 66.469,315.717 65.770 L 316.685 64.500 318.196 64.500 C 319.382 64.500,319.672 64.545,319.543 64.708 C 317.674 67.077,315.833 69.533,315.833 69.660 C 315.833 69.785,318.038 72.758,320.380 75.792 C 320.506 75.955,320.219 76.000,319.058 76.000 L 317.576 76.000 316.163 74.154 C 315.386 73.139,314.630 72.154,314.483 71.965 C 314.224 71.633,314.165 71.688,312.511 73.812 L 310.806 76.000 309.403 76.000 C 307.721 76.000,307.743 76.129,309.129 74.359 C 311.895 70.824,312.697 69.683,312.566 69.469 C 312.493 69.348,311.674 68.275,310.746 67.083 C 309.818 65.892,309.004 64.823,308.936 64.708 C 308.842 64.548,309.154 64.500,310.286 64.500 L 311.758 64.500 312.996 66.101 M113.083 66.811 C 112.717 66.978,112.144 67.416,111.812 67.785 C 109.104 70.788,112.521 75.312,116.219 73.619 C 119.881 71.942,118.695 66.507,114.667 66.507 C 114.135 66.507,113.470 66.635,113.083 66.811 M167.024 66.860 C 166.624 67.058,166.075 67.526,165.803 67.901 L 165.308 68.583 166.978 68.631 C 167.897 68.657,169.447 68.657,170.423 68.631 L 172.197 68.583 171.675 67.917 C 170.577 66.514,168.621 66.069,167.024 66.860 M181.403 66.782 C 180.574 67.269,180.424 67.391,180.036 67.897 C 179.453 68.657,179.489 68.667,183.016 68.667 L 186.366 68.667 186.031 68.125 C 185.151 66.705,182.731 66.003,181.403 66.782 M297.937 66.745 C 296.576 67.230,295.510 68.742,295.504 70.197 C 295.488 73.529,299.402 75.236,301.812 72.950 C 304.739 70.173,301.750 65.386,297.937 66.745 M353.830 66.816 C 351.183 68.257,350.950 71.642,353.386 73.282 C 356.682 75.502,360.791 71.626,358.676 68.291 C 357.657 66.684,355.358 65.985,353.830 66.816 M250.333 66.932 C 247.406 68.196,247.349 72.091,250.238 73.437 C 253.965 75.172,257.349 70.442,254.390 67.634 C 253.404 66.698,251.598 66.385,250.333 66.932 M48.776 73.066 C 46.683 74.284,44.965 75.349,44.960 75.432 C 44.944 75.683,52.555 80.010,52.878 79.933 C 53.174 79.863,60.864 75.466,60.790 75.411 C 60.424 75.138,52.832 70.836,52.729 70.842 C 52.649 70.847,50.870 71.847,48.776 73.066 M364.167 99.333 L 364.167 101.167 202.917 101.167 L 41.667 101.167 41.667 99.333 L 41.667 97.500 202.917 97.500 L 364.167 97.500 364.167 99.333 " stroke="none" fill="#2c5e58" fill-rule="evenodd"></path><path id="path1" d="M210.135 66.473 C 207.963 71.300,206.135 75.385,206.072 75.549 C 205.968 75.823,206.063 75.845,207.179 75.799 L 208.399 75.750 209.397 73.539 L 210.395 71.327 214.153 71.372 L 217.910 71.417 218.901 73.625 L 219.893 75.833 221.131 75.833 C 222.056 75.833,222.347 75.781,222.283 75.625 C 222.236 75.510,220.983 72.754,219.499 69.500 C 218.015 66.246,216.203 62.273,215.474 60.671 C 214.744 59.069,214.133 57.744,214.115 57.727 C 214.098 57.710,212.306 61.646,210.135 66.473 M123.833 66.917 L 123.833 75.833 124.989 75.833 L 126.144 75.833 126.197 72.097 L 126.250 68.361 126.750 67.654 C 127.971 65.926,130.417 65.797,131.097 67.424 C 131.278 67.857,131.333 68.905,131.333 71.911 L 131.333 75.833 132.500 75.833 L 133.667 75.833 133.663 71.458 C 133.660 67.573,133.625 67.009,133.354 66.417 C 132.168 63.833,129.273 63.473,126.974 65.624 L 126.167 66.379 126.167 62.189 L 126.167 58.000 125.000 58.000 L 123.833 58.000 123.833 66.917 M359.000 62.442 L 359.000 66.883 358.522 66.223 C 355.517 62.075,349.263 64.736,349.253 70.167 C 349.243 75.484,354.801 78.193,358.208 74.532 L 359.000 73.681 359.000 74.757 L 359.000 75.833 360.167 75.833 L 361.333 75.833 361.333 66.917 L 361.333 58.000 360.167 58.000 L 359.000 58.000 359.000 62.442 M85.500 67.083 L 85.500 75.833 86.758 75.833 L 88.015 75.833 87.991 71.708 L 87.967 67.583 92.150 67.539 C 95.437 67.504,96.335 67.540,96.339 67.705 C 96.342 67.822,96.340 69.698,96.334 71.875 L 96.323 75.833 97.578 75.833 L 98.833 75.833 98.833 67.083 L 98.833 58.333 97.583 58.333 L 96.333 58.333 96.333 61.753 L 96.333 65.172 92.153 65.128 L 87.973 65.083 87.993 61.708 L 88.012 58.333 86.756 58.333 L 85.500 58.333 85.500 67.083 M331.333 67.083 L 331.333 75.833 335.417 75.833 L 339.500 75.833 339.500 74.754 L 339.500 73.675 336.625 73.629 L 333.750 73.583 333.707 65.958 L 333.663 58.333 332.498 58.333 L 331.333 58.333 331.333 67.083 M102.826 59.214 C 101.839 59.991,101.733 61.100,102.567 61.933 C 103.744 63.111,105.583 62.389,105.583 60.750 C 105.583 59.402,103.828 58.424,102.826 59.214 M147.000 62.833 L 147.000 64.500 146.083 64.500 L 145.167 64.500 145.167 65.583 L 145.167 66.667 146.083 66.667 L 147.000 66.667 147.000 71.250 L 147.000 75.833 148.167 75.833 L 149.333 75.833 149.333 71.250 L 149.333 66.667 150.500 66.667 L 151.667 66.667 151.667 65.583 L 151.667 64.500 150.500 64.500 L 149.333 64.500 149.333 62.833 L 149.333 61.167 148.167 61.167 L 147.000 61.167 147.000 62.833 M192.500 62.826 L 192.500 64.500 191.583 64.500 L 190.667 64.500 190.667 65.583 L 190.667 66.667 191.583 66.667 L 192.500 66.667 192.500 71.250 L 192.500 75.833 193.757 75.833 L 195.014 75.833 194.991 71.292 L 194.968 66.750 196.151 66.701 L 197.333 66.652 197.333 65.576 L 197.333 64.500 196.125 64.500 L 194.917 64.500 194.917 62.875 L 194.917 61.250 193.708 61.201 L 192.500 61.152 192.500 62.826 M286.167 62.833 L 286.167 64.500 285.250 64.500 L 284.333 64.500 284.333 65.583 L 284.333 66.667 285.250 66.667 L 286.167 66.667 286.167 71.250 L 286.167 75.833 287.333 75.833 L 288.500 75.833 288.500 71.250 L 288.500 66.667 289.750 66.667 L 291.000 66.667 291.000 65.583 L 291.000 64.500 289.750 64.500 L 288.500 64.500 288.500 62.833 L 288.500 61.167 287.333 61.167 L 286.167 61.167 286.167 62.833 M342.500 62.833 L 342.500 64.500 341.583 64.500 L 340.667 64.500 340.667 65.583 L 340.667 66.667 341.583 66.667 L 342.500 66.667 342.500 71.250 L 342.500 75.833 343.667 75.833 L 344.833 75.833 344.833 71.250 L 344.833 66.667 346.083 66.667 L 347.333 66.667 347.333 65.583 L 347.333 64.500 346.083 64.500 L 344.833 64.500 344.833 62.833 L 344.833 61.167 343.667 61.167 L 342.500 61.167 342.500 62.833 M215.580 66.250 C 216.284 67.808,216.900 69.177,216.948 69.292 C 217.016 69.454,216.401 69.500,214.184 69.500 C 212.504 69.500,211.333 69.435,211.333 69.342 C 211.333 69.256,211.736 68.299,212.228 67.217 C 212.720 66.135,213.331 64.778,213.587 64.201 C 214.150 62.930,214.018 62.794,215.580 66.250 M112.583 64.313 C 110.864 64.767,109.206 66.376,108.671 68.110 C 106.844 74.025,112.974 78.696,117.253 74.649 L 118.167 73.785 118.163 75.184 C 118.153 78.984,114.690 80.635,112.225 78.016 C 111.637 77.391,109.333 76.918,109.333 77.422 C 109.333 77.748,110.246 79.188,110.777 79.700 C 113.548 82.370,118.152 81.524,119.873 78.028 L 120.417 76.925 120.468 70.712 L 120.519 64.500 119.343 64.500 L 118.167 64.500 118.167 65.680 L 118.167 66.860 117.352 65.969 C 116.064 64.559,114.158 63.898,112.583 64.313 M138.872 64.330 C 137.435 64.671,136.333 66.009,136.333 67.415 C 136.333 69.034,136.923 69.687,139.418 70.833 C 141.507 71.793,141.935 72.274,141.563 73.243 C 141.248 74.063,139.298 74.263,138.291 73.579 L 137.672 73.158 136.836 73.582 C 135.835 74.089,135.833 74.103,136.625 74.874 C 139.201 77.379,143.667 76.017,143.667 72.726 C 143.667 71.047,142.954 70.260,140.284 68.993 C 138.627 68.207,138.176 67.728,138.474 67.073 C 138.849 66.251,140.038 66.114,141.244 66.755 L 142.037 67.177 142.768 66.577 C 143.671 65.837,143.673 65.868,142.692 65.200 C 141.386 64.310,140.147 64.028,138.872 64.330 M159.152 64.326 C 158.402 64.553,157.878 64.994,157.221 65.949 L 156.583 66.877 156.534 65.681 L 156.485 64.485 155.368 64.534 L 154.250 64.583 154.206 70.208 L 154.162 75.833 155.406 75.833 L 156.649 75.833 156.699 72.095 C 156.747 68.606,156.773 68.325,157.099 67.887 C 157.730 67.036,158.453 66.667,159.491 66.667 L 160.433 66.667 160.773 65.512 L 161.113 64.358 160.765 64.265 C 160.305 64.141,159.684 64.165,159.152 64.326 M167.322 64.395 C 162.754 65.626,161.331 71.569,164.846 74.730 C 167.139 76.791,170.979 76.681,173.344 74.487 L 174.083 73.801 173.333 73.151 C 172.445 72.381,172.347 72.367,171.821 72.939 C 170.067 74.842,166.430 74.220,165.346 71.830 C 164.783 70.588,164.477 70.667,169.856 70.667 L 174.712 70.667 174.625 69.582 C 174.340 66.024,170.746 63.471,167.322 64.395 M181.724 64.340 C 178.037 65.070,175.995 69.460,177.701 72.989 C 179.370 76.441,184.389 77.265,187.458 74.591 C 188.336 73.827,188.333 73.715,187.417 73.042 C 186.528 72.387,186.640 72.391,185.972 73.001 C 183.727 75.052,180.095 73.993,179.251 71.042 L 179.144 70.667 184.088 70.667 L 189.031 70.667 188.913 69.792 C 188.393 65.966,185.313 63.630,181.724 64.340 M228.005 64.423 C 222.619 65.933,221.998 73.023,227.018 75.691 C 228.146 76.291,230.703 76.262,232.042 75.634 L 233.000 75.185 233.000 73.862 L 233.000 72.538 231.906 73.119 C 229.378 74.462,226.721 73.682,226.038 71.397 C 224.976 67.843,228.410 65.404,232.030 67.142 L 233.000 67.608 233.000 66.316 L 233.000 65.024 232.042 64.665 C 230.780 64.193,229.169 64.097,228.005 64.423 M239.224 64.330 C 234.604 65.311,232.929 71.138,236.306 74.480 C 238.098 76.254,240.596 76.685,243.025 75.640 L 243.833 75.292 243.833 73.966 C 243.833 73.236,243.777 72.667,243.708 72.702 C 240.371 74.399,238.332 74.118,237.148 71.797 C 235.442 68.453,239.099 65.390,242.783 67.077 C 243.291 67.310,243.739 67.500,243.777 67.500 C 243.816 67.500,243.825 66.921,243.799 66.213 L 243.750 64.926 242.952 64.630 C 241.991 64.274,240.176 64.128,239.224 64.330 M250.322 64.384 C 244.827 65.940,244.124 72.825,249.178 75.576 C 253.647 78.009,259.254 73.167,257.578 68.321 C 256.594 65.477,253.119 63.592,250.322 64.384 M277.447 64.399 C 276.788 64.644,276.512 64.841,275.458 65.820 L 274.833 66.401 274.833 65.450 L 274.833 64.500 273.667 64.500 L 272.500 64.500 272.500 70.167 L 272.500 75.833 273.655 75.833 L 274.810 75.833 274.863 72.195 L 274.917 68.556 275.419 67.744 C 276.570 65.884,279.044 65.701,279.764 67.424 C 279.945 67.857,280.000 68.905,280.000 71.911 L 280.000 75.833 281.174 75.833 L 282.348 75.833 282.299 71.196 L 282.250 66.558 281.795 65.872 C 280.916 64.544,278.897 63.860,277.447 64.399 M297.250 64.313 C 294.450 65.052,292.504 68.169,292.984 71.148 C 293.747 75.882,298.733 77.830,301.875 74.620 L 302.667 73.811 302.667 74.822 L 302.667 75.833 303.917 75.833 L 305.167 75.833 305.167 70.167 L 305.167 64.500 303.917 64.500 L 302.667 64.500 302.667 65.607 L 302.667 66.714 301.994 65.949 C 300.846 64.645,298.743 63.920,297.250 64.313 M102.667 70.167 L 102.667 75.833 103.833 75.833 L 105.000 75.833 105.000 70.167 L 105.000 64.500 103.833 64.500 L 102.667 64.500 102.667 70.167 M260.198 68.708 L 260.250 72.917 260.750 73.820 C 262.723 77.385,268.604 76.808,269.754 72.935 C 269.940 72.310,270.000 71.173,270.000 68.303 L 270.000 64.500 268.844 64.500 L 267.689 64.500 267.636 68.405 C 267.587 72.044,267.560 72.341,267.240 72.770 C 266.027 74.392,263.716 74.341,262.875 72.673 C 262.520 71.968,262.500 71.735,262.500 68.215 L 262.500 64.500 261.323 64.500 L 260.146 64.500 260.198 68.708 M310.073 66.125 C 310.764 67.019,311.667 68.172,312.079 68.688 L 312.828 69.626 310.492 72.688 L 308.156 75.750 309.354 75.799 C 310.923 75.864,310.736 75.992,312.593 73.601 L 314.214 71.514 315.876 73.674 L 317.539 75.833 318.957 75.833 C 320.068 75.833,320.338 75.788,320.208 75.625 C 319.139 74.284,315.668 69.730,315.668 69.667 C 315.667 69.621,316.529 68.476,317.583 67.123 C 318.638 65.769,319.500 64.625,319.500 64.581 C 319.500 64.536,318.881 64.500,318.124 64.500 L 316.748 64.500 315.499 66.158 C 314.812 67.070,314.207 67.763,314.155 67.700 C 314.103 67.636,313.515 66.890,312.849 66.042 L 311.637 64.500 310.227 64.500 L 308.816 64.500 310.073 66.125 M169.672 66.517 C 170.774 66.753,172.167 67.995,172.167 68.742 C 172.167 68.792,170.629 68.833,168.750 68.833 C 164.856 68.833,164.894 68.851,166.042 67.584 C 166.580 66.990,166.950 66.749,167.583 66.579 C 168.636 66.297,168.647 66.297,169.672 66.517 M184.570 66.696 C 185.093 66.963,185.998 67.858,186.268 68.375 L 186.509 68.833 183.004 68.833 C 181.077 68.833,179.500 68.777,179.501 68.708 C 179.508 67.156,182.865 65.824,184.570 66.696 M356.606 66.581 C 359.218 67.356,360.151 70.595,358.365 72.682 C 356.082 75.349,351.685 73.720,351.670 70.203 C 351.659 67.559,354.033 65.817,356.606 66.581 M116.448 66.848 C 120.015 68.575,118.632 73.981,114.620 73.996 C 110.643 74.011,109.324 68.609,112.875 66.851 C 113.841 66.373,115.463 66.371,116.448 66.848 M253.829 67.137 C 256.987 69.066,255.566 73.833,251.833 73.833 C 250.616 73.833,249.812 73.469,248.967 72.534 C 246.148 69.414,250.198 64.918,253.829 67.137 M301.305 67.045 C 304.389 69.086,303.108 73.787,299.416 73.973 C 295.099 74.191,293.837 68.357,297.838 66.677 C 298.647 66.338,300.540 66.539,301.305 67.045 M41.833 99.333 L 41.833 101.167 202.958 101.125 L 364.083 101.083 364.083 99.333 L 364.083 97.583 202.958 97.542 L 41.833 97.500 41.833 99.333 " stroke="none" fill="#f8f9f9" fill-rule="evenodd"></path><path id="path2" d="M45.483 57.392 C 41.670 59.607,38.426 61.521,38.275 61.646 C 37.840 62.007,37.856 78.324,38.292 78.701 C 38.864 79.197,52.469 87.000,52.761 87.000 C 53.039 87.000,67.193 78.859,67.372 78.596 C 67.603 78.259,67.524 61.868,67.292 61.661 C 66.788 61.213,52.958 53.335,52.702 53.350 C 52.545 53.359,49.297 55.178,45.483 57.392 M59.246 58.155 C 62.727 60.164,65.598 61.878,65.626 61.962 C 65.655 62.047,64.820 62.613,63.772 63.219 L 61.867 64.322 57.410 61.745 C 54.959 60.327,52.864 59.167,52.754 59.167 C 52.645 59.167,50.551 60.328,48.100 61.748 L 43.645 64.329 41.734 63.223 C 40.682 62.614,39.845 62.049,39.872 61.967 C 39.930 61.794,52.501 54.509,52.750 54.504 C 52.842 54.502,55.765 56.145,59.246 58.155 M52.167 65.296 L 52.167 69.925 48.708 71.914 C 46.806 73.008,45.006 74.045,44.708 74.218 L 44.167 74.533 44.167 69.876 L 44.167 65.218 48.042 62.956 C 50.173 61.712,51.973 60.688,52.042 60.680 C 52.110 60.673,52.167 62.750,52.167 65.296 M57.471 62.973 L 61.333 65.195 61.333 69.857 L 61.333 74.519 60.368 73.968 C 59.837 73.665,58.037 72.629,56.368 71.667 L 53.334 69.917 53.334 65.278 C 53.333 62.726,53.395 60.664,53.471 60.694 C 53.546 60.725,55.346 61.750,57.471 62.973 M41.308 64.153 L 43.167 65.224 43.167 70.491 L 43.167 75.759 47.662 78.338 L 52.157 80.917 52.162 83.208 C 52.164 84.469,52.127 85.500,52.079 85.500 C 52.031 85.500,49.762 84.211,47.038 82.636 C 44.313 81.062,41.427 79.396,40.625 78.935 L 39.167 78.097 39.167 70.534 C 39.167 66.375,39.230 62.997,39.308 63.028 C 39.385 63.058,40.285 63.565,41.308 64.153 M66.466 67.876 C 66.493 70.557,66.467 73.958,66.408 75.434 L 66.300 78.119 59.921 81.809 C 56.412 83.839,53.494 85.500,53.437 85.500 C 53.380 85.500,53.336 84.469,53.339 83.208 L 53.346 80.917 57.839 78.340 L 62.333 75.764 62.333 70.503 L 62.333 65.242 64.208 64.138 C 65.240 63.531,66.158 63.027,66.250 63.018 C 66.357 63.008,66.434 64.756,66.466 67.876 M56.812 73.107 C 58.978 74.358,60.768 75.395,60.790 75.411 C 60.864 75.466,53.174 79.863,52.878 79.933 C 52.555 80.010,44.944 75.683,44.960 75.432 C 44.969 75.280,52.454 70.858,52.729 70.842 C 52.809 70.837,54.646 71.857,56.812 73.107 " stroke="none" fill="#0d8c74" fill-rule="evenodd"></path><path id="path3" d="M0.000 77.917 L 0.000 155.833 200.000 155.833 L 400.000 155.833 400.000 77.917 L 400.000 0.000 200.000 0.000 L 0.000 0.000 0.000 77.917 M399.333 77.917 L 399.333 155.167 200.000 155.167 L 0.667 155.167 0.667 77.917 L 0.667 0.667 200.000 0.667 L 399.333 0.667 399.333 77.917 " stroke="none" fill="#34343c" fill-rule="evenodd"></path><path id="path4" d="M360.125 57.953 L 361.333 58.015 361.333 66.917 L 361.333 75.819 360.125 75.876 L 358.917 75.934 360.210 75.967 L 361.503 76.000 361.460 66.958 L 361.417 57.917 360.167 57.904 L 358.917 57.891 360.125 57.953 M123.748 66.917 L 123.750 75.917 124.917 75.928 L 126.083 75.939 124.960 75.879 L 123.836 75.819 123.791 66.868 L 123.746 57.917 123.748 66.917 M86.129 58.289 C 86.521 58.324,87.121 58.324,87.463 58.288 C 87.804 58.252,87.483 58.223,86.750 58.224 C 86.017 58.224,85.737 58.254,86.129 58.289 M96.963 58.289 C 97.355 58.324,97.955 58.324,98.296 58.288 C 98.637 58.252,98.317 58.223,97.583 58.224 C 96.850 58.224,96.571 58.254,96.963 58.289 M332.457 58.290 L 333.663 58.348 333.707 65.966 L 333.750 73.583 336.625 73.589 L 339.500 73.595 336.667 73.544 L 333.833 73.492 333.833 65.829 L 333.833 58.167 332.542 58.200 L 331.250 58.233 332.457 58.290 M288.562 62.833 C 288.562 63.796,288.589 64.190,288.623 63.708 C 288.657 63.227,288.657 62.440,288.623 61.958 C 288.589 61.477,288.562 61.871,288.562 62.833 M344.895 62.833 C 344.895 63.796,344.923 64.190,344.956 63.708 C 344.990 63.227,344.990 62.440,344.956 61.958 C 344.923 61.477,344.895 61.871,344.895 62.833 M145.072 65.667 L 145.083 66.750 145.959 66.764 L 146.835 66.779 146.008 66.714 L 145.182 66.650 145.121 65.617 L 145.061 64.583 145.072 65.667 M151.698 65.534 L 151.667 66.652 150.458 66.710 L 149.250 66.767 150.464 66.800 C 151.869 66.839,151.879 66.828,151.791 65.398 L 151.730 64.417 151.698 65.534 M156.500 65.667 C 156.500 66.339,156.551 66.838,156.612 66.777 C 156.730 66.659,156.692 64.636,156.570 64.514 C 156.531 64.476,156.500 64.994,156.500 65.667 M260.071 68.167 C 260.071 70.229,260.095 71.073,260.124 70.042 C 260.154 69.010,260.154 67.323,260.124 66.292 C 260.095 65.260,260.071 66.104,260.071 68.167 M284.239 65.667 L 284.250 66.750 285.209 66.764 L 286.168 66.777 285.258 66.714 L 284.348 66.650 284.288 65.617 L 284.227 64.583 284.239 65.667 M340.572 65.667 L 340.583 66.750 341.543 66.764 L 342.502 66.777 341.592 66.714 L 340.682 66.650 340.621 65.617 L 340.561 64.583 340.572 65.667 M87.978 65.045 C 88.048 65.115,89.976 65.152,92.261 65.128 L 96.417 65.083 92.133 65.000 C 89.777 64.954,87.907 64.974,87.978 65.045 M243.750 66.266 C 243.750 67.036,243.806 67.667,243.875 67.667 C 243.944 67.667,244.000 67.071,244.000 66.343 C 244.000 65.615,243.944 64.985,243.875 64.942 C 243.806 64.900,243.750 65.496,243.750 66.266 M110.073 65.708 L 109.583 66.250 110.125 65.760 C 110.423 65.491,110.667 65.248,110.667 65.219 C 110.667 65.090,110.529 65.203,110.073 65.708 M126.740 65.708 L 126.250 66.250 126.792 65.760 C 127.090 65.491,127.333 65.248,127.333 65.219 C 127.333 65.090,127.196 65.203,126.740 65.708 M236.158 65.958 L 235.583 66.583 236.208 66.009 C 236.552 65.693,236.833 65.412,236.833 65.384 C 236.833 65.257,236.692 65.377,236.158 65.958 M182.708 66.448 C 182.869 66.490,183.131 66.490,183.292 66.448 C 183.452 66.406,183.321 66.372,183.000 66.372 C 182.679 66.372,182.548 66.406,182.708 66.448 M355.208 66.448 C 355.369 66.490,355.631 66.490,355.792 66.448 C 355.952 66.406,355.821 66.372,355.500 66.372 C 355.179 66.372,355.048 66.406,355.208 66.448 M251.542 66.615 C 251.702 66.657,251.965 66.657,252.125 66.615 C 252.285 66.573,252.154 66.539,251.833 66.539 C 251.512 66.539,251.381 66.573,251.542 66.615 M191.128 66.787 C 191.428 66.825,191.878 66.824,192.128 66.786 C 192.378 66.748,192.133 66.717,191.583 66.718 C 191.033 66.719,190.828 66.750,191.128 66.787 M194.944 66.778 C 194.883 66.839,194.834 66.970,194.836 67.069 C 194.837 67.183,194.885 67.176,194.965 67.051 C 195.035 66.941,195.578 66.824,196.171 66.791 L 197.250 66.731 196.153 66.699 C 195.549 66.681,195.006 66.717,194.944 66.778 M288.500 71.243 L 288.500 75.819 287.292 75.876 L 286.083 75.934 287.375 75.967 L 288.667 76.000 288.667 71.424 L 288.667 66.849 289.792 66.790 L 290.917 66.732 289.708 66.699 L 288.500 66.667 288.500 71.243 M344.833 71.243 L 344.833 75.819 343.625 75.876 L 342.417 75.934 343.708 75.967 L 345.000 76.000 345.000 71.424 L 345.000 66.848 346.208 66.790 L 347.417 66.733 346.125 66.700 L 344.833 66.667 344.833 71.243 M136.209 67.417 C 136.211 67.783,136.245 67.914,136.285 67.706 C 136.324 67.499,136.323 67.199,136.281 67.040 C 136.239 66.880,136.207 67.050,136.209 67.417 M133.705 71.618 L 133.667 75.819 132.458 75.876 L 131.250 75.934 132.464 75.967 C 133.970 76.008,133.849 76.415,133.792 71.497 L 133.744 67.417 133.705 71.618 M179.500 68.708 C 179.500 68.777,181.094 68.818,183.042 68.800 C 186.625 68.767,186.211 68.705,181.875 68.626 C 180.568 68.603,179.500 68.640,179.500 68.708 M167.051 68.791 C 168.041 68.821,169.616 68.821,170.551 68.791 C 171.485 68.761,170.675 68.737,168.750 68.737 C 166.825 68.737,166.060 68.762,167.051 68.791 M274.871 72.368 L 274.833 75.819 273.625 75.876 L 272.417 75.934 273.630 75.967 C 275.127 76.008,275.018 76.314,274.958 72.245 L 274.909 68.917 274.871 72.368 M214.083 69.333 L 211.250 69.429 214.125 69.464 C 215.954 69.487,217.000 69.439,217.000 69.333 C 217.000 69.242,216.981 69.183,216.958 69.202 C 216.935 69.222,215.642 69.281,214.083 69.333 M257.879 70.167 C 257.879 70.579,257.911 70.748,257.951 70.542 C 257.991 70.335,257.991 69.998,257.951 69.792 C 257.911 69.585,257.879 69.754,257.879 70.167 M359.214 70.250 C 359.216 70.708,359.248 70.876,359.286 70.623 C 359.325 70.369,359.324 69.994,359.284 69.789 C 359.244 69.584,359.213 69.792,359.214 70.250 M212.218 71.458 C 213.300 71.487,215.025 71.487,216.051 71.458 C 217.077 71.428,216.192 71.405,214.083 71.405 C 211.975 71.405,211.135 71.429,212.218 71.458 M143.705 72.667 C 143.705 72.987,143.740 73.119,143.782 72.958 C 143.823 72.798,143.823 72.535,143.782 72.375 C 143.740 72.215,143.705 72.346,143.705 72.667 M243.797 73.541 C 243.876 75.313,243.949 75.483,243.975 73.958 C 243.989 73.156,243.944 72.500,243.875 72.500 C 243.806 72.500,243.771 72.968,243.797 73.541 M225.167 74.417 C 225.478 74.737,225.770 75.000,225.815 75.000 C 225.861 75.000,225.644 74.737,225.333 74.417 C 225.022 74.096,224.730 73.833,224.685 73.833 C 224.639 73.833,224.856 74.096,225.167 74.417 M255.909 74.542 L 255.250 75.250 255.958 74.591 C 256.348 74.229,256.667 73.910,256.667 73.883 C 256.667 73.757,256.522 73.883,255.909 74.542 M117.158 74.792 L 116.583 75.417 117.208 74.842 C 117.790 74.308,117.910 74.167,117.783 74.167 C 117.755 74.167,117.474 74.448,117.158 74.792 M294.667 74.750 C 294.978 75.071,295.270 75.333,295.315 75.333 C 295.361 75.333,295.144 75.071,294.833 74.750 C 294.522 74.429,294.230 74.167,294.185 74.167 C 294.139 74.167,294.356 74.429,294.667 74.750 M357.991 74.792 L 357.417 75.417 358.042 74.842 C 358.623 74.308,358.743 74.167,358.616 74.167 C 358.588 74.167,358.307 74.448,357.991 74.792 M311.000 75.583 C 310.737 75.900,308.071 75.956,308.266 75.641 C 308.340 75.522,308.312 75.494,308.192 75.567 C 307.718 75.861,308.103 76.000,309.391 76.000 C 310.570 76.000,310.828 75.949,311.083 75.667 C 311.249 75.483,311.345 75.333,311.296 75.333 C 311.247 75.333,311.114 75.446,311.000 75.583 M205.833 75.875 C 205.833 75.944,206.391 76.000,207.073 76.000 C 207.756 76.000,208.348 75.944,208.391 75.875 C 208.433 75.806,207.875 75.750,207.151 75.750 C 206.426 75.750,205.833 75.806,205.833 75.875 M317.481 75.882 C 317.554 75.954,318.282 75.991,319.099 75.964 L 320.583 75.914 318.966 75.832 C 318.076 75.787,317.408 75.809,317.481 75.882 M86.129 75.956 C 86.521 75.991,87.121 75.990,87.463 75.954 C 87.804 75.919,87.483 75.890,86.750 75.890 C 86.017 75.891,85.737 75.920,86.129 75.956 M96.963 75.956 C 97.355 75.991,97.955 75.990,98.296 75.954 C 98.637 75.919,98.317 75.890,97.583 75.890 C 96.850 75.891,96.571 75.920,96.963 75.956 M103.208 75.955 C 103.552 75.991,104.115 75.991,104.458 75.955 C 104.802 75.919,104.521 75.889,103.833 75.889 C 103.146 75.889,102.865 75.919,103.208 75.955 M147.542 75.955 C 147.885 75.991,148.448 75.991,148.792 75.955 C 149.135 75.919,148.854 75.889,148.167 75.889 C 147.479 75.889,147.198 75.919,147.542 75.955 M154.796 75.956 C 155.188 75.991,155.788 75.990,156.129 75.954 C 156.471 75.919,156.150 75.890,155.417 75.890 C 154.683 75.891,154.404 75.920,154.796 75.956 M193.129 75.956 C 193.521 75.991,194.121 75.990,194.463 75.954 C 194.804 75.919,194.483 75.890,193.750 75.890 C 193.017 75.891,192.737 75.920,193.129 75.956 M220.458 75.955 C 220.848 75.990,221.485 75.990,221.875 75.955 C 222.265 75.920,221.946 75.892,221.167 75.892 C 220.387 75.892,220.069 75.920,220.458 75.955 M280.542 75.955 C 280.885 75.991,281.448 75.991,281.792 75.955 C 282.135 75.919,281.854 75.889,281.167 75.889 C 280.479 75.889,280.198 75.919,280.542 75.955 M303.296 75.956 C 303.688 75.991,304.288 75.990,304.629 75.954 C 304.971 75.919,304.650 75.890,303.917 75.890 C 303.183 75.891,302.904 75.920,303.296 75.956 M333.385 75.958 C 334.559 75.987,336.434 75.987,337.551 75.958 C 338.669 75.929,337.708 75.905,335.417 75.906 C 333.125 75.906,332.211 75.929,333.385 75.958 M113.460 76.285 C 113.668 76.324,113.968 76.323,114.127 76.281 C 114.286 76.239,114.117 76.207,113.750 76.209 C 113.383 76.211,113.253 76.245,113.460 76.285 M139.460 76.285 C 139.668 76.324,139.968 76.323,140.127 76.281 C 140.286 76.239,140.117 76.207,139.750 76.209 C 139.383 76.211,139.253 76.245,139.460 76.285 M168.544 76.286 C 168.797 76.325,169.172 76.324,169.377 76.284 C 169.582 76.244,169.375 76.213,168.917 76.214 C 168.458 76.216,168.291 76.248,168.544 76.286 M182.711 76.286 C 182.964 76.325,183.339 76.324,183.544 76.284 C 183.749 76.244,183.542 76.213,183.083 76.214 C 182.625 76.216,182.457 76.248,182.711 76.286 M229.044 76.286 C 229.297 76.325,229.672 76.324,229.877 76.284 C 230.082 76.244,229.875 76.213,229.417 76.214 C 228.958 76.216,228.791 76.248,229.044 76.286 M251.544 76.286 C 251.797 76.325,252.172 76.324,252.377 76.284 C 252.582 76.244,252.375 76.213,251.917 76.214 C 251.458 76.216,251.291 76.248,251.544 76.286 M264.711 76.286 C 264.964 76.325,265.339 76.324,265.544 76.284 C 265.749 76.244,265.542 76.213,265.083 76.214 C 264.625 76.216,264.457 76.248,264.711 76.286 M297.958 76.284 C 298.165 76.324,298.502 76.324,298.708 76.284 C 298.915 76.245,298.746 76.212,298.333 76.212 C 297.921 76.212,297.752 76.245,297.958 76.284 M354.211 76.286 C 354.464 76.325,354.839 76.324,355.044 76.284 C 355.249 76.244,355.042 76.213,354.583 76.214 C 354.125 76.216,353.957 76.248,354.211 76.286 M41.730 99.333 C 41.730 100.388,41.757 100.819,41.790 100.292 C 41.823 99.765,41.823 98.902,41.790 98.375 C 41.757 97.848,41.730 98.279,41.730 99.333 " stroke="none" fill="#7c8e8b" fill-rule="evenodd"></path></g></svg>